<svg xmlns="http://www.w3.org/2000/svg" width="657" height="628"><path data-name="mdm - mdm - mdm - mdmmdm - mdm - mdm - mdm" d="M243.158 583.477l-6.337-2.728-14.438 27.546c-1.441 2.642-3.049 6.729-3.049 6.729l-.128-.055s.466-4.959.489-7.832l-.2-24.212-5.632-2.424-17.788 16.468c-2.1 2.056-5.3 5.61-5.3 5.61l-.128-.055a71.726 71.726 0 002.738-6.712l10.086-29.42-6.273-2.7-15.798 46.759 6.592 2.838 20.959-19.959c2.1-2.055 4.858-5.116 4.858-5.116l.128.055s-.391 4.081-.441 7.018l-.096 28.942 6.592 2.838zm-61.664-29.119l-13.217-9.666c-12.093-8.842-25.427-7.371-34.639 5.228-9.172 12.542-6.491 25.638 5.6 34.481l13.218 9.665zm-9.1.765l-21.963 30.035-7.256-5.306c-8.83-6.457-10.911-16.007-3.795-25.737 7.2-9.843 16.872-10.8 25.758-4.3zM136.7 519.876l-4.569-5.17-24.807 18.759c-2.43 1.775-5.628 4.787-5.628 4.787l-.092-.1s2.535-4.286 3.782-6.875l10.146-21.985-4.061-4.6L88.358 512c-2.775.964-7.185 2.814-7.185 2.814l-.092-.1a71.706 71.706 0 005.339-4.9l21.67-22.309-4.522-5.118-34.239 35.548 4.753 5.379 27.471-9.115c2.775-.964 6.576-2.555 6.576-2.555l.092.1s-2.094 3.524-3.392 6.159L92.4 544.046l4.753 5.379zm-73.506-63.149l-9.019-18.24-5.375 2.656 9.019 18.24zm-4.847-65.855l-1.2-6.793-30.947 3.077c-3 .248-7.3 1.151-7.3 1.151l-.024-.137s4.4-2.336 6.811-3.9L45.8 370.8l-1.07-6.038-23.53-5.806c-2.87-.624-7.6-1.343-7.6-1.343l-.024-.138a71.617 71.617 0 007.111-1.4l30.12-7.743-1.191-6.724L1.871 354.1l1.252 7.067 28.192 6.54c2.871.624 6.944 1.247 6.944 1.247l.024.137s-3.623 1.916-6.1 3.488L7.949 388.407l1.251 7.067zm-9.042-67.534L50.334 307c.941-14.95-7.477-25.393-23.053-26.373-15.506-.976-25.1 8.333-26.039 23.283L.214 320.248zm-5.547-7.261L6.627 313.74l.565-8.97c.687-10.917 7.613-17.811 19.643-17.054 12.169.766 18.18 8.4 17.489 19.392zM54.354 267l1.942-6.619-29.085-11c-2.8-1.111-7.048-2.213-7.048-2.213l.039-.133s4.978-.137 7.832-.462l24.008-3.122 1.726-5.884L35.273 221.9c-2.294-1.834-6.208-4.58-6.208-4.58l.039-.134A71.65 71.65 0 0036.1 219.1l30.419 6.456L68.438 219l-48.32-10.039-2.02 6.886 22.342 18.392c2.294 1.835 5.665 4.2 5.665 4.2l-.039.133s-4.1.105-7.019.41l-28.738 3.4-2.021 6.887zm14.3-95.844l10.659-17.329-5.1-3.14-10.659 17.333zm53.226-39.077l5.084-4.663-19.214-24.454c-1.82-2.4-4.89-5.537-4.89-5.537l.1-.094s4.332 2.456 6.944 3.654l22.167 9.736 4.52-4.145-7.738-22.971c-1.015-2.756-2.947-7.131-2.947-7.131l.1-.094a71.547 71.547 0 005 5.247l22.706 21.251 5.033-4.615-36.171-33.569-5.289 4.851 9.622 27.295c1.015 2.757 2.677 6.528 2.677 6.528l-.1.094s-3.562-2.028-6.22-3.277L96.9 88.244 91.608 93.1zm52.008-44.025l14.217-8.125c13.007-7.433 17.1-20.207 9.359-33.758-7.71-13.491-20.76-16.386-33.767-8.953l-14.217 8.125zm3.016-8.626l-18.459-32.301 7.8-4.46c9.5-5.428 19.066-3.432 25.047 7.034 6.05 10.587 2.974 19.809-6.585 25.271zm47-17.563l6.649-1.839-5.98-30.518c-.53-2.962-1.835-7.156-1.835-7.156l.135-.037s2.74 4.158 4.52 6.413L242.7 47.49l5.91-1.634 3.564-23.975c.351-2.916.621-7.69.621-7.69l.134-.037A71.726 71.726 0 00255 21.1l10.548 29.255 6.581-1.82-16.944-46.356-6.917 1.913-3.853 28.682c-.351 2.916-.587 7.03-.587 7.03l-.134.037s-2.249-3.427-4.048-5.749l-18.041-22.628-6.918 1.913zm89.061-40.814l20.34.486.143-5.991-20.34-.486zm60.581 25.907l6.649 1.84 10.555-29.254c1.068-2.814 2.1-7.082 2.1-7.082l.134.037s.214 4.976.582 7.825l3.491 23.959 5.91 1.636 15.381-18.736c1.8-2.322 4.485-6.278 4.485-6.278l.135.037a71.41 71.41 0 00-1.8 7.022l-5.989 30.518 6.582 1.822 9.295-48.475-6.912-1.909L406.1 32.545c-1.8 2.322-4.117 5.73-4.117 5.73l-.134-.037s-.168-4.1-.517-7.012L397.481 2.54 390.564.625zm65 20.5l14.575 7.467c13.335 6.831 26.272 3.28 33.389-10.613 7.085-13.831 2.377-26.343-10.958-33.174l-14.575-7.467zm8.872-2.188l16.967-33.119 8 4.1c9.737 4.988 13.3 14.093 7.8 24.822-5.56 10.854-14.965 13.317-24.765 8.3zm40.891 29.083l5.356 4.347 21.376-22.58c2.1-2.151 4.763-5.647 4.763-5.647l.108.088s-1.8 4.645-2.6 7.4l-6.39 23.352 4.761 3.864 21.592-11.013c2.578-1.407 6.622-3.958 6.622-3.958l.109.088a71.637 71.637 0 00-4.459 5.714l-17.7 25.567 5.3 4.3 27.917-40.7-5.564-4.513-25.6 13.509c-2.579 1.407-6.066 3.6-6.066 3.6l-.108-.088s1.485-3.82 2.332-6.632l7.956-27.824-5.572-4.523zm50.357 43.226l4.207 5.466 26.016-17.032c2.544-1.607 5.938-4.394 5.938-4.394l.085.11s-2.82 4.1-4.238 6.6l-11.61 21.243 3.739 4.859 23.551-5.727c2.833-.774 7.357-2.321 7.357-2.321l.085.11a71.773 71.773 0 00-5.658 4.53l-23.126 20.787 4.164 5.411 36.561-33.148-4.377-5.687-28.019 7.232c-2.833.774-6.733 2.1-6.733 2.1l-.085-.111s2.327-3.373 3.8-5.914l14.166-25.233-4.377-5.687zm39.389 55.643l6.713 14.933c6.141 13.663 18.458 18.973 32.693 12.574 14.17-6.37 18.311-19.078 12.17-32.741l-6.713-14.933zm8.293 3.835l33.93-15.257 3.685 8.2c4.485 9.977 1.574 19.306-9.419 24.247-11.121 5-20 1.047-24.514-8.993zm13.544 48.349l1.221 6.789 30.937-3.157c3-.256 7.293-1.17 7.293-1.17l.025.137s-4.392 2.348-6.8 3.914l-20.082 13.522 1.086 6.035 23.547 5.748c2.871.616 7.6 1.323 7.6 1.323l.025.137a71.509 71.509 0 00-7.107 1.42l-30.1 7.82 1.208 6.721 47.713-12.617-1.27-7.063-28.208-6.465c-2.872-.616-6.947-1.229-6.947-1.229l-.024-.137s3.618-1.925 6.1-3.5l24.187-15.89-1.271-7.063zm28.909 92.78l-2.375 20.206 5.951.7 2.375-20.2zM596.871 396l-2.551 6.409 27.93 13.666c2.68 1.367 6.81 2.861 6.81 2.861l-.052.129s-4.968-.328-7.84-.271l-24.192.869-2.268 5.7 16.952 17.32c2.113 2.041 5.753 5.14 5.753 5.14l-.051.129a71.608 71.608 0 00-6.784-2.55l-29.678-9.264-2.525 6.344 47.17 14.5 2.654-6.668-20.528-20.394c-2.113-2.04-5.248-4.713-5.248-4.713l.051-.129s4.089.277 7.026.246l28.928-.709 2.653-6.667zm-27.24 62.475l-9.037 13.655c-8.267 12.493-6.174 25.742 6.841 34.356 12.958 8.575 25.914 5.285 34.181-7.208l9.037-13.655zm1.19 9.06l31.028 20.534-4.961 7.5c-6.037 9.123-15.478 11.648-25.53 5-10.169-6.729-11.573-16.348-5.5-25.529zM537.2 504.891l-5.11 4.635 19.078 24.563c1.807 2.407 4.86 5.565 4.86 5.565l-.1.094s-4.32-2.481-6.925-3.693l-22.114-9.861-4.543 4.12 7.61 23.017c1 2.762 2.907 7.147 2.907 7.147l-.1.094a71.661 71.661 0 00-4.972-5.275L505.2 533.918l-5.059 4.588 36 33.775 5.316-4.822-9.47-27.35c-1-2.762-2.641-6.543-2.641-6.543l.1-.093s3.551 2.048 6.2 3.312l26.3 12.087 5.317-4.822zm-63.285 73.554l-18.343 8.807 2.594 5.4 18.343-8.807z" fill="#bca18a" fill-rule="evenodd" opacity=".6"/></svg>